<svg width="28" height="30" viewBox="0 0 28 30" fill="none" xmlns="http://www.w3.org/2000/svg">
<path d="M24.1865 23.7237L25.465 27.0628C25.7013 27.6783 26.3519 27.9694 26.9195 27.7137C27.4881 27.4606 27.7577 26.7558 27.5221 26.14L26.2439 22.802L24.1865 23.7237Z" fill="#333333"/>
<path d="M25.0396 25.9494L27.0965 25.0276L25.0396 25.9494Z" fill="#333333"/>
<path d="M21.489 16.676L24.3983 17.9796L21.489 16.676Z" fill="#333333"/>
<path d="M23.072 9.90724C23.072 11.6816 21.7432 13.1198 20.1048 13.1198C18.4646 13.1198 17.1355 11.6816 17.1355 9.90724C17.1355 8.13318 18.4646 6.6958 20.1048 6.6958C21.7429 6.6958 23.072 8.13318 23.072 9.90724Z" fill="#333333"/>
<path d="M21.5876 9.90725C21.5876 10.795 20.9236 11.5142 20.1044 11.5142C19.2842 11.5142 18.6187 10.795 18.6187 9.90725C18.6187 9.02025 19.2842 8.30103 20.1044 8.30103C20.9236 8.30062 21.5876 9.02025 21.5876 9.90725Z" fill="#333333"/>
<path d="M18.0225 12.197L13.9617 22.8022L12.9438 27.5614L13.6294 27.8687L16.0194 23.724L16.588 22.2407C16.1444 21.081 16.6527 19.7514 17.7242 19.2719L20.0788 13.1187C19.278 13.1115 18.5534 12.7615 18.0225 12.197Z" fill="#333333"/>
<path d="M22.1848 12.1963C21.6535 12.7615 20.9283 13.1115 20.1274 13.1184L23.6203 22.2388L25.6767 21.3175L22.1848 12.1963Z" fill="#333333"/>
<path d="M21.217 5.08941V1.47514C21.2166 0.809062 20.7166 0.270264 20.1038 0.270264C19.4889 0.270264 18.9906 0.808334 18.9902 1.47514L18.9906 5.08941H21.217Z" fill="#333333"/>
<path d="M20.1046 6.69586C20.2943 6.69586 20.4802 6.71647 20.6602 6.75338V5.0896H19.5474V6.75338C19.728 6.71611 19.913 6.69586 20.1046 6.69586Z" fill="#333333"/>
<path d="M4.64736 29.1978H0.94458V0.269531H4.64804C5.46625 0.269531 6.12914 0.989494 6.12914 1.87724V27.5915H6.12883C6.12846 28.4793 5.46557 29.1978 4.64736 29.1978Z" fill="#333333"/>
<path d="M4.46279 2.68045C4.76963 2.68045 5.01841 2.41057 5.01841 2.07765C5.01841 1.74474 4.76963 1.47485 4.46279 1.47485C4.15595 1.47485 3.90723 1.74474 3.90723 2.07765C3.90723 2.41057 4.15595 2.68045 4.46279 2.68045Z" fill="#333333"/>
<path d="M8.72119 17.3467C8.72119 17.6783 8.97017 17.9491 9.27675 17.9491C9.58371 17.9491 9.83238 17.6783 9.83238 17.3467C9.83238 17.6783 10.0817 17.9491 10.3879 17.9491C10.6949 17.9491 10.9435 17.6783 10.9435 17.3467C10.9435 17.6783 10.6949 17.9491 10.3879 17.9491C10.0817 17.9491 9.83238 17.6783 9.83238 17.3467C9.83238 17.6783 9.58371 17.9491 9.27675 17.9491C8.97017 17.9491 8.72119 17.6783 8.72119 17.3467Z" fill="#333333"/>
<path d="M9.46209 0.269531C9.05345 0.269531 8.72119 0.630054 8.72119 1.07411V17.9489L9.83201 22.7702L10.9432 17.9489V1.07339C10.9432 0.630058 10.6113 0.269893 10.2023 0.269893L9.46209 0.269531Z" fill="#333333"/>
</svg>
